<svg version="1" xmlns="http://www.w3.org/2000/svg" width="705.333" height="200" viewBox="0 0 529 150"><path d="M43.9 21.9C29.5 29.6 6 43.5 3.8 45.6 2.3 47 .8 49.5.5 51.3.2 53.1 0 65.2.2 78.2L.5 102l3 2.9c2.7 2.7 38.9 24.1 40.8 24.1.4 0 .7-9.1.7-20.3V88.5L35.5 79c-9.4-9.3-10.6-11.5-8.3-13.8 2.5-2.5 5.4-1.1 12.5 6l7.3 7.2v-13c0-13.8.5-15.4 4.7-15.4 2.9 0 3.2 1.5 3.6 16.5l.2 12 7.6-7.3c7.7-7.3 9.5-8.2 11.7-6 2.4 2.4 1 4.4-9.3 14.3L55 89.6v40.6l3.3-1.9c1.7-1.1 11-6.3 20.5-11.8 9.5-5.4 18.2-10.9 19.2-12.3 1.9-2.3 2-4.2 2-28.8V49l-2.7-2.9C93.1 41.7 54.3 20 50.5 20c-1.6 0-4.6.9-6.6 1.9zM130 54.5c0 2 .5 2.5 2.5 2.5s2.5-.5 2.5-2.5-.5-2.5-2.5-2.5-2.5.5-2.5 2.5zM140 54.5c0 2.1.5 2.5 3 2.5s3-.4 3-2.5-.5-2.5-3-2.5-3 .4-3 2.5zM228 77.4V96h7v-5.3l.1-5.2 4.9 5.2c4.2 4.5 5.4 5.3 8.5 5.3h3.7l-5.6-6.4c-3.1-3.5-5.6-6.6-5.6-6.9 0-.3 2-2.9 4.5-5.8s4.5-5.6 4.5-6.1c0-.4-1.3-.8-2.9-.8-2.4 0-3.9 1.1-7.3 5.1l-4.3 5.1-.5-10.3-.5-10.4-3.2-.3-3.3-.3v18.5zM367 77.4V96h7V85.1l5.1 5.5c4.4 4.5 5.8 5.4 8.7 5.4h3.4l-5.7-6.5c-6.3-7.2-6.3-6.2.2-13.8 4.1-4.6 4.1-5.7.4-5.7-2.3 0-3.9 1.1-7.3 5.2l-4.3 5.2-.5-10.5-.5-10.4-3.2-.3-3.3-.3v18.5zM437 64.8v6l-4.5-.6c-5.2-.5-8.6 1.2-11.5 6.1-5.1 8.3.5 20.3 9.3 20 1.8-.1 5.6-.2 8.5-.2l5.2-.1-.2-18.2-.3-18.3-3.2-.3-3.3-.3v5.9zm-2.2 10.8c2 .6 2.2 1.2 2.2 7.4 0 7.2-.5 8-5.5 8-2.7 0-6.5-4.2-6.5-7.2 0-1 .7-3.2 1.5-4.8 1.3-2.4 2.4-3.2 5.5-3.9.3 0 1.5.2 2.8.5zM523 62.5c0 3.2.2 3.5 3 3.5s3-.3 3-3.5-.2-3.5-3-3.5-3 .3-3 3.5zM122 72.2c0 9 .4 12.2 2 15.5 4.9 10.9 20.1 12.1 26.8 2.1 2.4-3.7 2.7-5 3-16.4l.4-12.4h-7l-.4 12.1c-.3 11.8-.4 12.1-3.1 14.5-3.1 2.6-8.1 3.2-10.8 1.1-3.2-2.4-3.9-5.6-3.9-16.6V61h-7v11.2zM340.1 65.2c-1 2.4-4.6 10.1-8 17.2-3.4 7-6.1 13-6.1 13.2 0 .2 1.6.4 3.5.4 3.1 0 3.8-.5 5.2-3.5l1.7-3.5h17.2l1.7 3.5c1.4 3 2.1 3.5 5.2 3.5 1.9 0 3.5-.2 3.5-.4s-3.6-8-8-17.3c-7.5-15.9-8.1-16.8-11-17.1-2.7-.3-3.2.1-4.9 4zm8.1 11.8l2.7 6h-11.8l2.7-6c1.5-3.2 2.9-5.9 3.2-5.9.3 0 1.7 2.7 3.2 5.9zM214.6 66.3c-.7 1.9-2.5 4.3-4 5.4-2.8 2.3-3.4 4.3-1.2 4.3 1 0 1.5 2.2 1.8 8.4.5 9.2 1.4 11.1 5.8 12.1 4.5 1 7-.2 7-3.4 0-2.3-.4-2.7-2.7-2.6-2.8 0-2.8-.1-3.1-7.3l-.3-7.2h3.1c2.7 0 3-.3 3-3s-.3-3-3-3c-2.8 0-3-.3-3-3.5 0-4.4-1.6-4.5-3.4-.2zM159 83v13h6v-8.3c0-10.4 1.3-12.8 5.9-11 2.8 1 3.3.9 4.6-1 1.3-1.9 1.3-2.3-.2-3.9-2-2.3-6.1-2.3-8.5-.1-1.7 1.5-1.8 1.5-1.8 0 0-1.2-.9-1.7-3-1.7h-3v13zM185.4 71.9c-4.5 2.8-6.4 5.9-6.4 10.9 0 7.4 3.7 12.1 10.7 13.6 3.4.8 10.8-.8 11.9-2.5.9-1.5-2.7-5.2-4-3.9-1.9 1.9-8.4 1.2-10.8-1.3l-2.3-2.2 10.8-.3 10.7-.3v-2.7c0-9.8-12.1-16.5-20.6-11.3zm11.3 5.5c1.5 1.3 2.5 2.7 2.2 3.1-.4.3-3.8.5-7.5.3l-6.9-.3 2.7-2.8c3.3-3.3 5.8-3.4 9.5-.3zM260.3 72c-7.4 4.5-8.4 14.8-2 20.7 4.6 4.1 9.4 5.1 15.2 2.8 5-1.8 5.3-2.5 2.7-4.8-1.2-1.1-2.2-1.3-3.2-.7-2.6 1.6-8.6 1.1-10.3-.8-1-1-1.7-2.2-1.7-2.5 0-.4 4.5-.7 10-.7h10v-3.3c0-9.8-12-16.1-20.7-10.7zm12.4 5.2c.7.6 1.3 1.7 1.3 2.4 0 1.1-1.6 1.4-6.5 1.4-6.4 0-7.2-.4-5.7-2.6 2.2-3.3 7.7-3.9 10.9-1.2zM285.7 70.7c-.4.3-.7 6.2-.7 13V96h7v-9.5c0-9.2.1-9.6 2.5-10.7 1.9-.8 3.1-.8 5 0 2.4 1.1 2.5 1.5 2.5 10.7V96h7v-8.5c0-9.3-1.6-14.7-4.8-16.4-2.6-1.4-7.7-1.4-10.2-.1-1.3.7-2.1.7-2.5 0-.7-1.1-4.8-1.4-5.8-.3zM396.8 71.6c-3.2 1.7-3.4 2.6-1.3 4.4 1.2 1 2.1 1 4.3.1 2-.8 3.6-.9 5.5-.2 4.4 1.7 3.3 3.8-2.3 4.6-6.8.9-10 3.6-10 8.4 0 5.1 2.7 7.5 8.3 7.4 2.3-.1 6.4-.1 9-.2l4.9-.1-.4-10.1c-.3-9.9-.3-10.1-3.6-13-3.7-3.3-9.7-3.9-14.4-1.3zm11 16.1c-.3 3-4 4.6-7 3.1-3.9-1.9-1.2-5.8 4-5.8 3 0 3.3.2 3 2.7zM454.5 72c-3.4 2.2-6.5 7.4-6.5 10.8 0 6.3 5.3 12.6 11.6 13.8 3.5.6 12.4-1.9 12.4-3.5 0-1.8-3.6-4-5-3.1-2.6 1.6-8.6 1.1-10.3-.8-1-1-1.7-2.2-1.7-2.5 0-.4 4.5-.7 10-.7h10v-3.9c0-9.4-12.3-15.5-20.5-10.1zm12.3 5.7l2.7 2.8-6.9.3c-3.7.2-7.1 0-7.5-.3-.9-1 4.8-5.5 7-5.5 1.1 0 3.2 1.2 4.7 2.7zM480 83v13h6v-9.5c0-9.1.1-9.6 2.4-10.6 1.7-.8 2.9-.8 4.5 0 1.9 1.1 2.1 2 2.1 10.6V96h7.2l-.3-9.7c-.3-9.4-.2-9.6 2.1-10.5 1.6-.6 3.3-.5 4.7.1 2.2 1 2.3 1.7 2.3 10.6V96h7v-7.3c-.1-9.3-1.4-14.8-4.1-17-2.6-2.1-9.7-2.3-12.4-.3-1.7 1.2-2.3 1.2-4.7 0-3.2-1.7-6.2-1.8-8.9-.4-1.3.7-1.9.7-1.9 0 0-.5-1.3-1-3-1h-3v13zM523 83v13h6V70h-6v13z"/></svg>